<?xml version="1.0" encoding="utf-8"?>
<!-- Generator: Adobe Illustrator 16.0.4, SVG Export Plug-In . SVG Version: 6.00 Build 0)  -->
<!DOCTYPE svg PUBLIC "-//W3C//DTD SVG 1.1//EN" "http://www.w3.org/Graphics/SVG/1.1/DTD/svg11.dtd">
<svg version="1.1" id="Calque_1" xmlns="http://www.w3.org/2000/svg" xmlns:xlink="http://www.w3.org/1999/xlink" x="0px" y="0px"
	 width="112px" height="144px" viewBox="0 0 112 144" enable-background="new 0 0 112 144" xml:space="preserve">
<path fill="#008000" d="M26.333,135.419c-2.348,0-4.252-1.903-4.252-4.252V87.093c-4.569-2.09-8.154-5.731-10.436-10.63
	c-6.021-12.923,3.638-25.245,9.486-31.107C10.25,36.392,9.248,27.839,9.248,19.167c0-2.348,1.904-4.252,4.252-4.252
	s4.252,1.904,4.252,4.252c0,4.803,0,9.719,4.329,15.158V21c0-5.978,2.866-10.995,8.07-14.128c5.628-3.388,13.509-4.017,18.336-1.462
	c1.869,0.989,7.116,3.467,13.19,6.336c12.065,5.698,28.59,13.502,36.592,18.06c5.966,3.398,9.254,8.455,9.259,14.24
	c0.005,7.137-4.812,13.084-9.587,15.813c-7.024,4.014-49.892,25.374-51.713,26.281c-2.891,1.445-9.03,3.401-15.643,2.995v42.032
	C30.585,133.516,28.681,135.419,26.333,135.419z M30.585,80.599c4.869,0.421,9.803-1.046,11.846-2.067
	c0.449-0.225,44.477-22.161,51.292-26.056c2.572-1.47,5.304-4.921,5.302-8.423c-0.002-2.675-1.672-4.982-4.964-6.857
	c-7.719-4.396-24.073-12.12-36.015-17.76c-6.423-3.034-11.497-5.43-13.537-6.51c-1.761-0.932-6.405-0.916-9.971,1.232
	c-2.623,1.579-3.953,3.882-3.953,6.843v16.924c11.862-7.948,25.945-14.805,34.738-10.346c4.818,2.443,7.262,7.52,7.262,15.088
	c0,10.009-4.28,14.411-7.871,16.341c-9.854,5.297-24.995-1.782-34.129-7.188V80.599z M22.081,57.441
	c-3.037,4.5-5.202,10.119-2.728,15.43c0.744,1.597,1.649,2.937,2.728,4.032V57.441z M35.511,44.857
	c10.953,6.389,20.725,9.053,25.175,6.661c2.253-1.21,3.395-4.188,3.395-8.851c0-2.821-0.451-6.413-2.604-7.504
	C58.322,33.562,49.748,35.342,35.511,44.857z"/>
</svg>
